<svg width="1099" height="712" viewBox="0 0 1099 712" fill="none" xmlns="http://www.w3.org/2000/svg">
<g clip-path="url(#clip0_23_2)">
<path d="M148 711.68C229.738 711.68 296 701.078 296 688C296 674.922 229.738 664.32 148 664.32C66.2619 664.32 0 674.922 0 688C0 701.078 66.2619 711.68 148 711.68Z" fill="#F2F2F2"/>
<path d="M870 687.609C996.473 687.609 1099 671.205 1099 650.969C1099 630.733 996.473 614.329 870 614.329C743.527 614.329 641 630.733 641 650.969C641 671.205 743.527 687.609 870 687.609Z" fill="#F2F2F2"/>
<path d="M819.12 298.785C819.12 298.785 821.07 305.285 810.02 311.133C798.97 316.981 795.72 339.078 808.72 345.576C821.72 352.074 825.62 360.523 819.12 366.376C812.62 372.229 800.92 387.822 816.52 391.721C832.12 395.62 834.067 403.421 829.52 406.668C824.973 409.915 839.92 400.819 839.92 400.819C839.92 400.819 842.52 416.419 856.167 412.519C869.814 408.619 908.157 334.534 888.661 324.136C869.165 313.738 819.12 298.785 819.12 298.785Z" fill="#2F2E41"/>
<path d="M842.675 361.54C842.675 361.54 849.416 385.134 837.619 386.819C830.3 387.959 823.364 390.848 817.4 395.24L839.309 423.89H879.756L905.035 398.611C905.035 398.611 871.329 373.332 878.07 358.164C884.811 342.996 842.675 361.54 842.675 361.54Z" fill="#FFB9B9"/>
<path opacity="0.1" d="M842.675 361.54C842.675 361.54 849.416 385.134 837.619 386.819C830.3 387.959 823.364 390.848 817.4 395.24L839.309 423.89H879.756L905.035 398.611C905.035 398.611 871.329 373.332 878.07 358.164C884.811 342.996 842.675 361.54 842.675 361.54Z" fill="black"/>
<path d="M852.787 654.779L891.549 668.261L918.513 669.946L916.828 646.352L861.213 629.9L852.787 654.779Z" fill="#FFB9B9"/>
<path d="M902.5 649.723C902.5 649.723 902.5 673.317 905.871 673.317C909.242 673.317 954.745 668.261 968.227 673.317C981.709 678.373 1001.93 659.835 991.821 649.723C981.709 639.611 965.215 624.444 954.921 627.814C944.627 631.184 902.5 639.611 902.5 639.611V649.723Z" fill="#575A89"/>
<path d="M778.634 627.814C778.634 627.814 758.41 668.261 771.893 671.632C785.376 675.003 800.543 669.947 802.228 668.261C803.913 666.575 827.507 659.835 830.878 663.205C834.249 666.575 834.249 649.723 834.249 649.723L778.634 627.814Z" fill="#575A89"/>
<path d="M795.487 572.199C795.487 572.199 763.466 616.017 787.06 627.814C810.654 639.611 923.569 639.614 931.995 627.814C940.421 616.014 943.795 578.94 931.995 575.57C920.195 572.2 795.487 572.199 795.487 572.199Z" fill="#2F2E41"/>
<path opacity="0.2" d="M795.487 572.199C795.487 572.199 763.466 616.017 787.06 627.814C810.654 639.611 923.569 639.614 931.995 627.814C940.421 616.014 943.795 578.94 931.995 575.57C920.195 572.2 795.487 572.199 795.487 572.199Z" fill="black"/>
<path d="M856.158 373.334C877.566 373.334 894.92 355.98 894.92 334.572C894.92 313.164 877.566 295.81 856.158 295.81C834.75 295.81 817.396 313.164 817.396 334.572C817.396 355.98 834.75 373.334 856.158 373.334Z" fill="#FFB9B9"/>
<path d="M795.487 395.24L829.193 388.499C829.193 388.499 837.62 415.464 864.584 410.408C891.548 405.352 898.29 388.499 898.29 388.499C898.29 388.499 918.514 396.926 920.199 396.926C921.884 396.926 943.793 405.352 943.793 410.408C943.793 415.464 918.514 466.023 918.514 466.023L921.885 557.029L797.172 553.66L805.6 464.34L795.487 395.24Z" fill="#38418E"/>
<path d="M776.948 439.06C776.948 439.06 766.836 528.381 773.577 535.122C780.318 541.863 807.283 560.401 807.283 560.401V540.178L793.8 514.899L807.282 455.914L776.948 439.06Z" fill="#FFB9B9"/>
<path d="M951.377 436.532C951.377 436.532 945.477 528.381 945.477 531.751C945.477 535.121 930.309 546.919 925.253 546.919C920.197 546.919 916.826 538.492 916.826 538.492L928.626 525.01L920.2 455.91L951.377 436.532Z" fill="#FFB9B9"/>
<path d="M935.366 565.458C935.366 565.458 1011.2 523.326 1012.89 565.458C1014.58 607.59 974.128 624.443 974.128 624.443C974.128 624.443 869.64 655.775 865.428 644.322C861.216 632.869 852.788 614.331 859.528 612.646C866.268 610.961 874.696 607.59 878.066 610.961C881.436 614.332 923.566 585.682 923.566 585.682L935.366 565.458Z" fill="#2F2E41"/>
<path opacity="0.2" d="M970.758 560.402C970.758 560.402 955.59 567.143 950.534 572.202C945.478 577.261 923.569 585.684 923.569 585.684" stroke="black" stroke-width="2" stroke-miterlimit="10"/>
<path d="M805.6 398.613L795.487 395.24C795.487 395.24 758.41 434.002 770.208 444.114C782.006 454.226 788.746 457.596 792.117 460.967C795.488 464.338 812.341 466.023 812.341 466.023L805.6 398.613Z" fill="#1488CC"/>
<path d="M928.625 407.04L943.793 410.411C943.793 410.411 955.593 435.69 958.961 439.061C962.329 442.432 953.905 440.746 948.849 447.487C943.793 454.228 938.737 466.025 928.625 466.025C918.513 466.025 905.031 449.172 905.031 449.172L928.625 407.04Z" fill="#1488CC"/>
<path d="M798.857 580.625C798.857 580.625 734.816 535.125 712.907 568.825C690.998 602.525 807.284 648.034 824.137 654.775C840.99 661.516 856.158 668.257 856.158 668.257C856.158 668.257 871.326 631.18 871.326 624.439C871.326 617.698 859.526 617.698 856.158 617.698C852.79 617.698 837.62 614.327 834.249 609.272C830.878 604.217 798.857 580.625 798.857 580.625Z" fill="#2F2E41"/>
<path opacity="0.2" d="M763.466 568.828C763.466 568.828 780.319 582.31 795.487 585.681C810.655 589.052 815.711 597.481 815.711 597.481" stroke="black" stroke-width="2" stroke-miterlimit="10"/>
<path d="M787.232 505.462L788.578 576.818C788.622 579.175 789.597 581.419 791.289 583.06C792.981 584.702 795.253 585.608 797.61 585.582L930.4 584.09C932.663 584.064 934.831 583.181 936.468 581.619C938.105 580.056 939.088 577.931 939.218 575.672L943.249 505.808C943.319 504.594 943.14 503.378 942.724 502.235C942.307 501.092 941.662 500.046 940.827 499.162C939.992 498.277 938.985 497.573 937.868 497.091C936.751 496.609 935.547 496.361 934.331 496.361H796.163C794.976 496.361 793.801 496.598 792.706 497.057C791.612 497.516 790.619 498.189 789.788 499.037C788.956 499.884 788.302 500.888 787.863 501.992C787.424 503.095 787.21 504.274 787.232 505.461V505.462Z" fill="#575A89"/>
<path d="M858.228 285.88C858.228 285.88 860.388 293.08 848.149 299.559C835.91 306.038 832.31 330.516 846.709 337.715C861.108 344.914 865.427 354.273 858.228 360.753C851.029 367.233 838.07 384.511 855.348 388.83C872.626 393.149 874.786 401.789 869.748 405.388C864.71 408.987 881.267 398.909 881.267 398.909C881.267 398.909 884.147 416.187 899.267 411.868C914.387 407.549 929.467 329.028 912.617 308.804C896.945 290 858.228 285.88 858.228 285.88Z" fill="#2F2E41"/>
<path d="M853.63 278.469C853.63 267.922 885.189 275.5 898.718 290.227C908.087 300.427 922.318 315.767 910.392 326.582C898.466 337.397 930.831 351.574 939.511 355.872C948.191 360.17 965.328 373.315 949.854 382.133C934.38 390.951 934.63 399.853 940.454 401.96C946.278 404.067 927.615 398.826 927.615 398.826C927.615 398.826 929.5 416.24 913.776 416.159C898.052 416.078 852.944 329.665 863.72 305.646C873.74 283.313 853.63 278.469 853.63 278.469Z" fill="#2F2E41"/>
<path d="M860.465 276.158C818.265 273.617 814.032 305.381 814.032 305.381C814.324 323.763 843.515 314.806 851.622 317.546C861.403 310.51 880.258 297.196 893.742 287.695C883.953 280.802 872.42 276.804 860.465 276.158V276.158Z" fill="#2F2E41"/>
<path d="M848.442 478.848C848.442 478.848 810.59 301.449 573.669 172.76" stroke="#3F3D56" stroke-width="2" stroke-miterlimit="10"/>
<path d="M583.431 168.891L583.905 170.836L574.322 173.16L577.341 182.549L575.435 183.16L571.76 171.724L583.431 168.891Z" fill="#3F3D56"/>
<path d="M68.4732 660.111C68.4732 682.58 55.1172 690.425 38.6392 690.425C38.2572 690.425 37.8762 690.421 37.4962 690.412C36.7332 690.396 35.9762 690.359 35.2292 690.312C20.3582 689.26 8.80518 681.012 8.80518 660.112C8.80518 638.487 36.4392 611.2 38.5152 609.18L38.6352 609.064C38.6352 609.064 68.4732 637.64 68.4732 660.111Z" fill="#1488CC"/>
<path d="M37.552 686.988L48.464 671.74L37.525 688.662L37.5 690.412C36.737 690.396 35.98 690.359 35.233 690.312L36.409 667.833L36.4 667.659L36.42 667.626L36.531 665.503L25.561 648.54L36.561 663.91L36.586 664.361L37.475 647.376L28.088 629.84L37.588 644.387L38.513 609.175V609.055V609.171L38.365 636.94L47.712 625.94L38.327 639.34L38.08 654.54L46.807 639.946L38.044 656.778L37.906 665.232L50.575 644.919L37.858 668.184L37.552 686.988Z" fill="#3F3D56"/>
<path d="M210.773 654.29L217.155 649.549C217.155 649.549 221.379 673.149 216.665 676.681C211.951 680.213 194.274 686.109 194.274 693.181C194.274 700.253 154.206 709.681 153.028 699.073C151.85 688.465 156.563 682.573 156.563 682.573C156.563 682.573 175.418 663.718 177.775 660.182C180.132 656.646 186.024 649.576 186.024 649.576L210.773 654.29Z" fill="#2F2E41"/>
<path d="M116.5 360.854C116.5 360.854 116.677 361.891 116.983 363.788C117.266 365.473 117.655 367.854 118.126 370.788C123.076 400.988 137.512 489.907 136.534 492.841C135.356 496.376 127.106 509.341 136.534 512.875C137.441 513.217 138.42 514.324 139.468 516.069C141.492 519.825 143.161 523.763 144.453 527.83C150.074 544.14 156.085 570.243 159.561 588.32C161.081 596.263 162.118 602.65 162.425 605.997C162.531 606.77 162.543 607.554 162.46 608.33C161.282 613.044 169.531 629.542 173.066 634.256C176.601 638.97 182.494 643.684 181.315 648.398C180.136 653.112 210.777 666.075 214.315 657.826C217.853 649.577 217.85 644.863 219.029 642.506C220.208 640.149 221.386 623.651 215.494 621.294C209.602 618.937 213.137 577.694 207.245 569.442C205.277 566.696 202.272 557.398 199.125 546.215C197.888 541.831 196.638 537.164 195.413 532.486C190.44 513.312 186.033 494.021 186.033 494.021L187.2 356.14L122.385 347.891L120.723 351.556L117.411 358.827L116.5 360.854Z" fill="#2F2E41"/>
<path d="M112.961 587.118C112.961 587.118 103.533 577.69 98.819 587.118C94.105 596.546 89.391 633.078 81.142 641.327C72.893 649.576 62.287 690.827 74.071 693.179C85.855 695.531 98.819 689.644 99.997 682.573C101.175 675.502 125.923 638.973 125.923 635.435C125.923 631.897 109.423 618.935 109.423 618.935L112.961 587.118Z" fill="#2F2E41"/>
<path d="M257.912 296.04C257.912 296.04 242.592 433.92 239.057 446.883C235.522 459.846 216.666 509.341 210.774 517.591C204.882 525.841 167.174 593.013 162.457 596.548C157.74 600.083 148.315 609.511 148.315 609.511C148.315 609.511 130.638 627.188 128.281 630.723C125.924 634.258 105.89 623.652 104.712 616.581C103.534 609.51 105.89 597.726 107.069 593.012C108.248 588.298 104.712 581.227 108.247 577.692C111.782 574.157 129.459 556.48 129.459 548.23C129.459 539.98 160.099 491.664 171.884 481.058C183.669 470.452 181.312 452.775 181.312 452.775V380.887L116.5 360.854C116.5 360.854 120.035 304.288 128.285 304.288C136.535 304.288 244.949 285.432 257.912 296.04Z" fill="#2F2E41"/>
<path d="M162.456 99.235C183.934 99.235 201.345 81.8238 201.345 60.346C201.345 38.8682 183.934 21.457 162.456 21.457C140.978 21.457 123.567 38.8682 123.567 60.346C123.567 81.8238 140.978 99.235 162.456 99.235Z" fill="#F4A3A3"/>
<path d="M175.419 90.9858C175.419 90.9858 180.133 108.663 186.025 113.377C191.917 118.091 170.705 138.125 170.705 138.125L130.637 140.482L123.566 118.091C123.566 118.091 136.529 92.1648 132.994 75.6658C129.459 59.1668 175.419 90.9858 175.419 90.9858Z" fill="#F4A3A3"/>
<path d="M191.918 111.02C191.918 111.02 181.312 112.198 178.955 115.734C176.598 119.27 160.1 129.876 147.137 127.519C134.174 125.162 125.925 121.627 123.568 122.805C121.211 123.983 116.5 148.731 116.5 148.731L129.459 186.44L127.102 290.14L123.567 318.423C123.567 318.423 116.496 308.995 144.779 314.888C173.062 320.781 209.594 310.174 221.379 308.996C233.164 307.818 253.197 304.282 254.379 297.211C255.561 290.14 250.844 264.211 250.844 264.211L231.989 185.254L220.2 142.84L191.918 111.02Z" fill="#1488CC"/>
<path d="M180.771 105.701C180.771 105.701 190.739 100.414 194.271 105.128C197.803 109.842 242.588 116.913 242.588 120.448C242.588 123.983 252.016 219.439 249.659 227.688C247.302 235.937 254.373 245.365 254.373 245.365L262.622 280.719C262.622 280.719 285.013 347.891 275.585 350.248C266.157 352.605 257.908 350.248 254.373 350.248C250.838 350.248 252.016 305.466 242.588 293.682C233.16 281.898 220.2 252.44 217.844 246.54C215.488 240.64 186.026 159.34 187.2 149.909C188.374 140.478 180.771 105.701 180.771 105.701Z" fill="#D0CDE1"/>
<path d="M131.816 111.02C131.816 111.02 122.388 111.02 121.21 113.377C120.032 115.734 108.247 131.054 103.533 134.589C98.8188 138.124 82.3208 153.44 82.3208 156.98C82.3208 160.52 116.5 186.44 116.5 186.44C116.5 186.44 130.642 255.969 123.571 279.54C116.5 303.111 105.89 359.675 110.6 363.21C115.31 366.745 125.92 367.924 125.92 363.21C125.92 358.496 132.991 307.822 138.883 297.216C144.775 286.61 162.452 219.438 155.383 200.582C148.314 181.726 131.816 111.02 131.816 111.02Z" fill="#D0CDE1"/>
<path d="M287.373 227.687C287.373 227.687 288.551 264.219 275.588 283.075C262.625 301.931 254.376 323.14 254.376 323.14C254.376 323.14 233.164 317.248 229.628 310.177C226.092 303.106 203.7 309.001 203.7 306.64C203.7 304.279 230.8 292.498 233.162 290.14C235.524 287.782 243.768 287.783 248.482 283.069C253.196 278.355 254.374 267.749 254.374 267.749L259.088 237.109L287.373 227.687Z" fill="#F4A3A3"/>
<path d="M189.241 36.3679C192.233 36.0959 195.318 35.7969 197.962 34.3679C203.887 31.1679 205.462 22.0739 200.948 17.0769C199.705 15.8057 198.314 14.6874 196.805 13.7459L187.847 7.64592C183.885 4.94592 179.83 2.20892 175.209 0.936917C171.03 -0.213083 166.615 -0.0950838 162.289 0.173916C153.889 0.695916 145.44 1.77392 137.54 4.67392C129.64 7.57392 122.272 12.4249 117.488 19.3469C109.903 30.3209 109.799 45.1219 113.977 57.7909C118.155 70.4599 126.089 81.4909 133.908 92.3009L137.965 72.5059C138.326 70.7429 138.794 68.8059 140.26 67.7669C143.905 65.1739 148.36 70.4979 152.836 70.4669C155.71 70.4449 158.123 68.0809 159.212 65.4209C160.301 62.7609 160.373 59.8159 160.625 56.9529C161.159 50.8889 163.278 42.4529 169.025 39.1059C174.372 35.9929 183.226 36.9139 189.241 36.3679Z" fill="#2F2E41"/>
<path opacity="0.1" d="M187.06 361.805C187.06 361.805 183.08 476.932 180.723 480.468C178.366 484.004 180.723 361.443 180.723 361.443L187.06 361.805Z" fill="black"/>
<path d="M233.164 120.447H242.592C242.592 120.447 282.66 174.656 277.946 178.192C273.232 181.728 277.946 191.155 277.946 191.155L287.374 208.832C287.374 208.832 299.159 219.438 295.623 221.795C292.087 224.152 287.374 233.58 287.374 233.58C287.374 233.58 263.805 230.045 256.734 244.186L241.45 224.886L233.164 120.447Z" fill="#D0CDE1"/>
<path d="M236.494 137.883L204.144 151.242L229.039 211.528L261.389 198.169L236.494 137.883Z" fill="#2F2E41"/>
<path d="M232.703 173.241C236.277 171.766 238.074 167.908 236.719 164.625C235.363 161.343 231.367 159.878 227.794 161.353C224.221 162.829 222.423 166.686 223.779 169.969C225.134 173.252 229.13 174.717 232.703 173.241Z" fill="#1488CC"/>
<path d="M209.595 214.724C209.595 214.724 124.746 285.432 110.6 263.04C96.4542 240.648 125.92 221.794 125.92 221.794C125.92 221.794 151.846 222.972 181.308 204.117L210.77 191.154C210.77 191.154 237.67 152.754 246.831 167.377C255.992 182 231.19 207.448 209.595 214.724Z" fill="#F4A3A3"/>
<path d="M95.2839 152.266L82.3209 156.98V192.334L77.6069 199.405C77.6069 199.405 78.7849 213.547 82.3209 217.082C85.8569 220.617 92.9269 219.439 90.5699 227.688C89.1534 233.067 88.7539 238.662 89.3919 244.188C89.3919 244.188 110.604 271.288 111.783 267.757C112.962 264.226 129.46 220.619 131.817 220.619C134.174 220.619 108.248 152.268 108.248 152.268L95.2839 152.266Z" fill="#D0CDE1"/>
<path d="M250.252 330.803C250.252 330.803 262.437 319.018 256.344 318.429C250.251 317.84 229.044 306.055 225.504 311.947C221.964 317.839 250.252 330.803 250.252 330.803Z" fill="#2F2E41"/>
<path d="M482 106C491.389 106 499 101.971 499 97C499 92.0294 491.389 88 482 88C472.611 88 465 92.0294 465 97C465 101.971 472.611 106 482 106Z" fill="#57B894"/>
<path d="M547 127C508.667 112.522 470.333 112.522 432 127V79.9999C469.498 68.6846 509.502 68.6846 547 79.9999V127Z" stroke="#3F3D56" stroke-width="2" stroke-miterlimit="10"/>
<path d="M531 117.28C503.333 106.831 475.667 106.831 448 117.28V83.3589C475.064 75.1922 503.936 75.1922 531 83.3589V117.28Z" stroke="#3F3D56" stroke-width="2" stroke-miterlimit="10"/>
<path d="M488 102C497.389 102 505 97.9706 505 93C505 88.0294 497.389 84 488 84C478.611 84 471 88.0294 471 93C471 97.9706 478.611 102 488 102Z" stroke="#3F3D56" stroke-width="2" stroke-miterlimit="10"/>
<path d="M494.502 162.369C503.703 160.491 510.356 155.02 509.362 150.149C508.368 145.278 500.103 142.851 490.902 144.729C481.701 146.607 475.048 152.078 476.042 156.949C477.036 161.82 485.301 164.247 494.502 162.369Z" fill="#57B894"/>
<path d="M562.386 169.94C521.932 163.42 484.373 171.087 449.709 192.94L440.309 146.889C474.787 128.302 513.982 120.302 552.986 123.889L562.386 169.94Z" stroke="#3F3D56" stroke-width="2" stroke-miterlimit="10"/>
<path d="M544.766 163.617C515.566 158.912 488.458 164.445 463.443 180.217L456.659 146.98C481.543 133.565 509.831 127.791 537.982 130.38L544.766 163.617Z" stroke="#3F3D56" stroke-width="2" stroke-miterlimit="10"/>
<path d="M499.581 157.25C508.782 155.372 515.435 149.901 514.441 145.03C513.447 140.159 505.182 137.732 495.981 139.61C486.78 141.488 480.127 146.959 481.121 151.83C482.115 156.701 490.38 159.128 499.581 157.25Z" stroke="#3F3D56" stroke-width="2.0004" stroke-miterlimit="10"/>
<path d="M506.135 210.664C506.48 205.706 499.167 201.157 489.801 200.506C480.434 199.854 472.562 203.345 472.217 208.304C471.872 213.262 479.185 217.81 488.551 218.462C497.917 219.114 505.79 215.623 506.135 210.664Z" fill="#57B894"/>
<path d="M551.935 243.925C514.699 226.821 476.458 224.16 437.212 235.942L440.475 189.055C478.669 180.37 518.577 183.148 555.2 197.04L551.935 243.925Z" stroke="#3F3D56" stroke-width="2" stroke-miterlimit="10"/>
<path d="M536.649 233.118C509.774 220.773 482.174 218.852 453.849 227.356L456.204 193.516C483.77 187.248 512.572 189.252 539.004 199.278L536.649 233.118Z" stroke="#3F3D56" stroke-width="2" stroke-miterlimit="10"/>
<path d="M512.399 207.091C512.744 202.133 505.431 197.584 496.065 196.933C486.698 196.281 478.826 199.772 478.481 204.731C478.136 209.689 485.449 214.237 494.815 214.889C504.181 215.541 512.054 212.05 512.399 207.091Z" stroke="#3F3D56" stroke-width="2" stroke-miterlimit="10"/>
<path d="M287.077 128.091C287.077 128.091 360.577 118.036 413.059 148.791" stroke="#3F3D56" stroke-width="2" stroke-miterlimit="10"/>
<path d="M411.295 138.459L409.386 139.059L412.37 148.459L402.776 150.748L403.243 152.695L414.926 149.904L411.295 138.459Z" fill="#3F3D56"/>
<path d="M579.95 599.306C574.828 592.134 567.895 586.887 559.179 584.923C551.579 583.21 543.763 583.502 536.037 583.562L438.345 584.315C429.978 584.38 421.956 591.628 422.345 600.315C422.731 608.929 429.377 616.384 438.345 616.315L524.196 615.653C530.943 615.601 537.696 615.479 544.44 615.501C545.955 615.501 547.464 615.586 548.978 615.601C549.345 615.601 549.609 615.601 549.796 615.594C549.843 615.608 549.882 615.621 549.943 615.638C550.733 615.855 551.543 616.004 552.337 616.21C552.059 616.218 552.852 616.71 553.251 616.881C553.306 616.989 553.422 617.181 553.617 617.481C553.889 617.991 554.694 619.54 554.727 619.491C555.937 622.549 556.935 625.688 557.714 628.884C559.573 635.931 559.982 637.404 560.25 644.016C560.588 652.368 567.367 660.416 576.25 660.016C584.629 659.641 592.613 652.974 592.25 644.016C591.638 628.92 588.989 611.964 579.95 599.306Z" fill="#E6E6E6"/>
<path d="M444.087 635.412C442.252 624.292 440.452 613.166 438.582 602.053C436.682 590.779 432.808 580.453 424.034 573.053C421.69 571.076 419.259 569.23 416.818 567.39C415.96 566.743 415.103 566.095 414.255 565.434L414.128 565.334L413.773 565.034C410.116 561.939 406.583 558.707 403.217 555.271C400.228 552.219 397.37 549.038 394.642 545.726C393.96 544.898 393.288 544.065 392.623 543.226C392.509 543.081 391.894 542.286 391.488 541.767C391.111 541.248 390.422 540.31 390.306 540.146C389.53 539.048 388.768 537.941 388.02 536.824C382.925 529.188 378.514 521.117 374.838 512.706C374.473 511.872 374.117 511.033 373.77 510.189C373.677 509.931 373.556 509.601 373.396 509.16C372.655 507.122 371.915 505.086 371.237 503.023C369.797 498.642 368.559 494.197 367.523 489.687C367.011 487.46 366.55 485.222 366.14 482.972C365.929 481.815 365.731 480.656 365.547 479.494C365.517 479.301 365.337 478.048 365.231 477.34C365.153 476.628 365.007 475.368 364.988 475.174C364.87 474.003 364.767 472.831 364.676 471.658C364.471 469.018 364.333 466.373 364.261 463.725C364.138 459.017 364.222 454.31 364.514 449.603C364.68 446.958 364.914 444.321 365.207 441.688C365.225 441.526 365.238 441.398 365.251 441.282C365.264 441.166 365.289 441.031 365.314 440.865C365.529 439.41 365.756 437.957 366.014 436.509C366.973 431.009 368.222 425.564 369.753 420.196C370.478 417.656 371.266 415.138 372.116 412.641C372.495 411.532 372.885 410.427 373.289 409.327C373.263 409.398 374.471 406.311 374.489 406.208C379.284 394.879 387.127 384.551 387.137 371.682C387.144 362.969 379.773 354.622 371.137 355.025C366.831 355.187 362.757 357.014 359.772 360.121C356.787 363.228 355.126 367.373 355.137 371.682C355.137 371.882 355.137 372.045 355.137 372.207C355.056 372.478 354.989 372.707 354.929 372.907C353.994 374.939 352.848 376.87 351.822 378.851C349.011 384.274 346.613 389.876 344.334 395.559C340.603 404.814 337.748 414.399 335.805 424.187C331.581 445.633 331.253 467.664 334.837 489.227C341.037 527.04 361.499 563.236 389.937 587.566C392.405 589.677 394.937 591.718 397.486 593.717C398.542 594.544 399.607 595.356 400.677 596.163C401.183 596.544 403.277 598.197 402.357 597.396C404.339 599.088 405.174 599.939 405.683 601.185C405.757 601.473 405.857 601.863 405.994 602.396C406.353 603.801 406.694 605.203 406.977 606.629C409.453 619.08 411.177 631.741 413.241 644.273C414.662 652.884 425.263 658.488 432.923 655.907C441.828 652.899 445.61 644.638 444.087 635.412Z" fill="#E6E6E6"/>
<path d="M581.568 667.707C574.848 667.724 568.396 665.076 563.627 660.342C558.858 655.608 556.161 649.176 556.128 642.457V624.206C537.019 626.345 471.585 625.85 452.828 622.836V641.727C452.849 645.081 452.207 648.406 450.937 651.512C449.668 654.617 447.798 657.44 445.433 659.819C443.069 662.199 440.257 664.087 437.16 665.375C434.063 666.664 430.742 667.327 427.388 667.327C424.033 667.327 420.712 666.664 417.615 665.375C414.518 664.087 411.706 662.199 409.342 659.819C406.977 657.44 405.107 654.617 403.838 651.512C402.569 648.406 401.926 645.081 401.947 641.727V604.635C376.543 590.522 355.365 569.885 340.598 544.855C325.832 519.825 318.013 491.308 317.947 462.247C317.947 412.417 340.53 365.933 379.906 334.713C405.508 314.346 436.614 302.097 469.229 299.54C473.656 299.193 478.11 299.017 482.468 299.017C497.82 299.017 567.087 301.389 584.468 306.389L624.096 267.067C624.679 266.481 625.423 266.082 626.233 265.92C627.043 265.759 627.883 265.842 628.646 266.16C629.414 266.466 630.073 266.997 630.534 267.683C630.995 268.37 631.238 269.18 631.23 270.007V276.259L638.946 268.617C639.527 268.03 640.271 267.631 641.08 267.469C641.89 267.307 642.73 267.391 643.492 267.709C644.261 268.014 644.92 268.545 645.382 269.232C645.843 269.919 646.087 270.729 646.079 271.557V341.422C665.963 359.348 681.119 381.903 690.202 407.087C699.285 432.271 702.016 459.307 698.151 485.799C694.287 512.291 683.948 537.42 668.049 558.961C652.151 580.501 631.185 597.787 607.008 609.287V642.457C606.975 649.176 604.278 655.608 599.509 660.342C594.74 665.076 588.288 667.724 581.568 667.707V667.707ZM558.128 621.937V642.457C558.128 648.674 560.598 654.636 564.994 659.032C569.39 663.428 575.352 665.897 581.569 665.897C587.785 665.897 593.747 663.428 598.143 659.032C602.539 654.636 605.009 648.674 605.009 642.457V608.025L605.58 607.754C632.708 594.881 655.737 574.742 672.111 549.572C692.976 517.453 701.653 478.926 696.572 440.964C691.491 403.002 672.988 368.113 644.411 342.612L644.079 342.312V271.557C644.088 271.126 643.963 270.703 643.723 270.345C643.483 269.988 643.139 269.712 642.737 269.557C642.339 269.386 641.898 269.341 641.473 269.425C641.048 269.509 640.659 269.72 640.356 270.03L629.228 281.055V270.007C629.237 269.576 629.112 269.153 628.872 268.795C628.632 268.438 628.288 268.162 627.886 268.007C627.487 267.837 627.045 267.791 626.62 267.876C626.194 267.962 625.804 268.173 625.501 268.484L585.025 308.648L584.45 308.468C568.294 303.411 497.937 301.014 482.468 301.014C478.162 301.014 473.761 301.188 469.386 301.531C437.167 304.057 406.439 316.157 381.149 336.277C342.254 367.115 319.949 413.028 319.949 462.244C320.015 491.048 327.793 519.309 342.474 544.091C357.155 568.872 378.203 589.272 403.433 603.169L403.949 603.455V641.725C403.929 644.816 404.52 647.881 405.689 650.742C406.858 653.604 408.582 656.206 410.76 658.399C412.939 660.592 415.53 662.332 418.384 663.52C421.238 664.708 424.298 665.319 427.39 665.319C430.481 665.319 433.541 664.708 436.395 663.52C439.249 662.332 441.84 660.592 444.019 658.399C446.198 656.206 447.921 653.604 449.09 650.742C450.259 647.881 450.85 644.816 450.83 641.725V620.441L452.015 620.664C468.871 623.835 539.847 624.335 557 622.085L558.128 621.937Z" fill="white" stroke="#3F3D56" stroke-width="2"/>
<path d="M324.848 412.258C310.896 410.197 297.552 405.151 285.726 397.466C279.867 393.661 274.443 389.225 269.552 384.238C264.724 379.314 260.105 373.717 257.714 367.159C255.413 361.092 255.532 354.372 258.045 348.39C260.524 342.444 265.26 337.723 271.214 335.264C277.204 332.875 284.44 332.62 290.269 335.236C293.047 336.453 295.45 338.388 297.233 340.842C298.062 341.973 298.675 343.247 299.043 344.6C299.384 345.826 299.415 347.118 299.133 348.359C298.791 349.598 298.188 350.75 297.365 351.737C296.542 352.724 295.517 353.523 294.359 354.082C291.811 355.389 289.051 356.231 286.207 356.568C283.347 356.958 279.238 357.313 276.939 355.017C276.466 354.563 276.093 354.014 275.846 353.406C275.673 352.94 275.614 352.441 275.674 351.948C275.64 352.165 275.813 351.476 275.803 351.503C275.767 351.603 275.609 351.853 275.833 351.472C275.903 351.346 275.981 351.225 276.066 351.109C275.99 351.209 275.823 351.371 276.121 351.09C276.367 350.82 276.684 350.625 277.035 350.526C277.173 350.486 277.314 350.454 277.453 350.416C277.806 350.316 277.101 350.421 277.462 350.41C277.601 350.41 277.742 350.41 277.881 350.403C278.235 350.387 277.532 350.303 277.871 350.392C278.003 350.425 278.133 350.457 278.263 350.498C278.545 350.587 278.063 350.291 278.254 350.512C278.478 350.771 278.019 350.26 278.273 350.512C278.4 350.636 278.519 350.768 278.631 350.906C279.072 351.342 279.668 351.586 280.288 351.586C280.909 351.586 281.504 351.342 281.946 350.906C282.372 350.459 282.61 349.866 282.61 349.248C282.61 348.631 282.372 348.037 281.946 347.591C279.635 344.726 275.069 345.434 272.731 347.855C269.749 350.943 270.931 355.838 273.831 358.533C277.115 361.584 281.765 361.796 285.989 361.284C289.558 360.942 293.037 359.96 296.258 358.384C299.458 356.811 301.961 354.108 303.282 350.796C303.878 349.028 304.093 347.154 303.911 345.298C303.729 343.441 303.154 341.645 302.226 340.027C298.497 333.016 290.774 329.421 283.142 328.799C279.212 328.491 275.26 328.966 271.515 330.195C267.77 331.425 264.306 333.385 261.323 335.962C255.574 341.137 252.034 348.325 251.435 356.037C250.769 364.037 253.871 371.798 258.394 378.251C263.129 384.807 268.78 390.651 275.173 395.604C287.674 405.58 302.336 412.493 317.987 415.787C319.848 416.171 321.72 416.501 323.602 416.775C324.201 416.92 324.832 416.831 325.368 416.527C325.903 416.223 326.303 415.726 326.485 415.138C326.646 414.539 326.564 413.9 326.258 413.361C325.951 412.821 325.445 412.424 324.848 412.255V412.258Z" fill="#3F3D56"/>
<path d="M548.238 310.381C527.796 310.092 507.418 310.611 487.105 311.937C480.162 312.39 474.154 314.844 474.154 318.969C474.154 322.418 480.114 326.458 487.105 326.001C507.408 324.675 527.785 324.156 548.238 324.445C564.907 324.681 564.898 310.616 548.238 310.381Z" fill="#CCCCCC"/>
<path d="M518.02 323.749C515.811 323.749 463.914 323.666 463.914 316.498C463.914 309.33 515.814 309.248 518.02 309.248C520.226 309.248 572.126 309.331 572.126 316.498C572.126 323.665 520.229 323.749 518.02 323.749ZM465.944 316.498C467.364 318.671 486.444 321.749 518.02 321.749C549.596 321.749 568.676 318.671 570.096 316.498C568.676 314.325 549.596 311.248 518.02 311.248C486.444 311.248 467.364 314.326 465.944 316.499V316.498Z" fill="#3F3D56"/>
<path d="M663.635 400.741H626.203V407.691H663.635V400.741Z" fill="#3F3D56"/>
</g>
<defs>
<clipPath id="clip0_23_2">
<rect width="1099" height="711.68" fill="white"/>
</clipPath>
</defs>
</svg>
